<?xml version="1.0" standalone="no"?>
<!DOCTYPE svg PUBLIC "-//W3C//DTD SVG 20010904//EN"
 "http://www.w3.org/TR/2001/REC-SVG-20010904/DTD/svg10.dtd">
<svg version="1.0" xmlns="http://www.w3.org/2000/svg"
 width="2331.000000pt" height="1552.000000pt" viewBox="0 0 2331.000000 1552.000000"
 preserveAspectRatio="xMidYMid meet">

<g transform="translate(0.000000,1552.000000) scale(0.100000,-0.100000)"
fill="#000000" stroke="none">
<path d="M9708 13918 c5 -113 9 -125 10 -30 1 50 -1 92 -5 92 -5 0 -7 -28 -5
-62z"/>
<path d="M9769 13883 l-24 -28 28 24 c15 14 27 26 27 28 0 8 -8 1 -31 -24z"/>
<path d="M19090 13445 c-169 -29 -308 -79 -446 -160 -201 -119 -383 -313 -487
-521 -42 -83 -94 -243 -111 -343 -14 -85 -16 -283 -16 -1908 0 -1276 3 -1813
11 -1813 6 0 19 5 30 10 19 11 19 38 19 1553 l0 1542 34 -77 c178 -408 525
-681 955 -753 145 -25 357 -17 492 18 249 65 444 178 615 360 115 122 188 238
272 437 8 18 11 -627 11 -2207 l1 -2233 -25 0 c-35 0 -110 -77 -125 -127 -8
-27 -10 -226 -8 -684 l3 -645 24 -36 c13 -19 39 -45 58 -58 36 -24 119 -38
150 -25 10 5 24 9 32 11 23 4 82 67 97 103 12 28 14 142 14 670 0 350 -3 646
-6 658 -4 13 -10 20 -15 17 -5 -3 -6 2 -3 10 8 21 -80 106 -111 106 l-25 0 -3
2513 -3 2512 -21 90 c-25 105 -64 216 -105 300 -116 232 -331 447 -563 563
-220 110 -516 156 -745 117z m130 -51 c0 -3 -7 -12 -15 -20 -25 -25 -18 -72
14 -105 47 -47 110 -34 136 26 13 33 13 40 0 65 -8 16 -15 31 -15 34 0 8 83
-5 159 -25 225 -59 425 -229 527 -444 62 -133 78 -206 77 -360 0 -111 -4 -143
-27 -218 -97 -324 -352 -547 -683 -597 -365 -56 -746 164 -886 512 -78 195
-76 432 5 627 108 259 368 465 633 500 33 5 63 9 68 10 4 0 7 -2 7 -5z m890
-409 c273 -353 322 -840 125 -1241 -295 -604 -998 -805 -1540 -441 -84 56
-226 197 -284 281 -312 453 -275 1047 91 1467 68 78 84 80 33 5 -191 -285
-190 -684 2 -973 52 -79 145 -176 218 -229 82 -58 212 -119 310 -145 114 -30
297 -30 418 -1 606 149 875 847 526 1366 l-41 61 51 -50 c29 -27 70 -72 91
-100z m202 -184 c250 -437 198 -988 -129 -1366 -165 -191 -369 -318 -612 -382
-117 -31 -343 -42 -473 -24 -173 25 -382 113 -528 222 -246 184 -409 446 -466
747 -22 120 -15 384 14 492 31 117 78 230 133 321 69 116 80 121 26 13 -53
-106 -91 -216 -114 -334 -23 -115 -23 -344 1 -463 87 -444 405 -803 817 -921
506 -144 1042 96 1291 580 96 184 138 361 138 574 0 210 -42 387 -136 575 -50
100 -28 80 38 -34z"/>
<path d="M11935 13335 c-174 -38 -314 -131 -424 -280 -41 -56 -95 -168 -119
-245 -11 -36 -32 -89 -47 -118 -45 -90 -64 -163 -75 -296 -5 -71 -10 -134 -10
-140 0 -8 -26 -10 -79 -8 -68 4 -87 1 -128 -19 -59 -29 -94 -54 -86 -63 3 -3
-1 -6 -10 -6 -9 0 -27 -23 -44 -57 -23 -49 -28 -70 -27 -133 1 -91 25 -151 85
-205 38 -34 93 -62 112 -57 4 1 7 -2 7 -7 0 -12 121 -11 136 0 15 12 -3 -116
-22 -152 -8 -16 -14 -35 -14 -44 0 -8 -4 -15 -8 -15 -10 0 -86 -140 -75 -140
4 0 3 -4 -3 -8 -12 -7 -74 -118 -136 -240 l-33 -63 -60 6 c-33 4 -85 13 -115
21 -30 7 -66 15 -80 18 -103 20 -414 118 -505 161 -149 68 -325 136 -338 129
-6 -4 -8 -3 -4 1 10 12 -136 68 -448 172 -143 47 -269 90 -280 94 -11 4 -56
18 -100 30 -44 12 -116 32 -160 45 -84 24 -339 89 -485 123 -73 17 -358 69
-555 101 -242 39 -480 55 -840 55 -383 0 -423 -3 -695 -44 -196 -31 -528 -118
-562 -148 -26 -23 -90 -152 -82 -165 4 -6 3 -8 -3 -5 -12 7 -75 -141 -66 -156
4 -6 1 -7 -7 -2 -10 6 -12 4 -7 -8 4 -10 1 -17 -5 -17 -6 0 -8 -3 -5 -7 4 -3
1 -13 -6 -22 -8 -9 -20 -38 -27 -66 -7 -27 -16 -54 -20 -60 -6 -10 -49 -141
-54 -166 -2 -8 -8 -27 -15 -44 -7 -16 -19 -59 -26 -95 -8 -36 -28 -121 -45
-189 -17 -69 -30 -132 -28 -140 1 -9 -1 -26 -5 -37 -9 -26 -45 -233 -57 -329
-31 -237 -35 -282 -57 -580 -10 -139 -10 -869 0 -1080 10 -224 33 -508 57
-702 40 -333 58 -464 76 -558 8 -44 17 -100 19 -125 2 -25 9 -70 15 -100 5
-30 14 -82 20 -115 5 -33 13 -73 18 -90 5 -16 7 -54 6 -84 -1 -29 2 -67 7 -85
5 -17 12 -44 15 -60 5 -30 46 -110 71 -138 13 -15 9 -19 -49 -45 -331 -147
-584 -309 -776 -494 -47 -46 -80 -85 -76 -91 4 -6 3 -8 -3 -5 -14 9 -86 -71
-77 -85 4 -7 3 -8 -4 -4 -7 4 -23 -11 -39 -36 -15 -24 -31 -45 -34 -48 -24
-19 -132 -220 -132 -246 0 -7 -3 -11 -7 -9 -9 5 -51 -115 -44 -126 3 -5 1 -9
-4 -9 -9 0 -55 -143 -68 -215 -9 -47 -9 -46 -16 -65 -3 -8 -11 -42 -18 -75
-47 -239 -72 -482 -85 -850 -3 -82 -8 -184 -11 -225 -12 -158 22 -797 67
-1240 31 -310 112 -933 134 -1026 3 -12 30 -37 64 -57 32 -20 101 -81 152
-134 194 -202 203 -209 262 -231 104 -39 258 -52 430 -35 l68 6 43 67 c386
597 640 1423 651 2120 4 263 -10 562 -27 575 -8 5 -26 53 -42 105 -15 52 -43
129 -62 170 -41 89 -122 220 -135 220 -5 0 -9 6 -9 13 0 8 -18 30 -40 51 -22
20 -40 41 -40 46 0 5 -9 12 -20 15 -11 4 -18 10 -15 15 3 5 -4 11 -15 15 -11
4 -18 10 -15 15 2 4 -8 14 -23 21 -34 18 -37 32 -12 54 19 17 21 16 68 -23 44
-38 96 -91 161 -167 40 -48 126 -196 163 -282 19 -46 39 -79 43 -75 5 4 5 2 1
-5 -8 -14 15 -103 27 -103 4 0 5 -5 2 -11 -13 -20 5 -57 32 -67 28 -10 80 -20
243 -43 87 -13 504 -17 595 -6 28 3 75 8 105 12 275 31 583 115 860 237 152
66 349 170 384 203 12 11 28 19 34 17 6 -2 39 15 72 38 57 39 74 44 272 86
l210 44 854 0 854 0 0 -418 0 -419 -157 -6 c-87 -4 -203 -7 -258 -7 -207 -1
-340 -55 -484 -201 -143 -144 -267 -398 -315 -649 -9 -47 -19 -96 -22 -109 -5
-23 -6 -23 -117 -20 l-112 4 -28 -52 c-36 -68 -44 -134 -23 -205 l16 -55 77
-7 c43 -4 99 -9 124 -12 l45 -6 13 -112 c59 -533 316 -931 652 -1011 53 -12
109 -14 327 -8 l262 6 0 -271 0 -272 -910 0 c-801 0 -915 -2 -948 -16 -139
-58 -181 -241 -79 -352 l20 -22 -3114 0 c-1713 0 -3120 -4 -3127 -9 -8 -5 -12
-21 -10 -37 l3 -29 5420 0 5420 0 3 23 c7 47 -9 52 -174 52 l-154 0 32 45 c61
86 47 218 -29 286 -74 64 -20 61 -990 60 l-883 -1 0 341 0 341 75 79 c89 96
164 216 221 358 38 94 46 106 66 104 160 -12 248 -13 333 -4 141 16 178 22
195 28 19 8 38 12 75 15 27 3 30 0 37 -42 67 -371 150 -605 287 -810 69 -103
176 -222 247 -275 80 -61 204 -121 289 -140 81 -19 152 -20 640 -5 382 12 439
20 560 79 354 170 614 628 686 1206 16 129 16 441 0 570 -40 324 -162 668
-309 874 -105 147 -251 275 -394 345 -71 34 -181 56 -284 56 l-85 0 39 57 c21
32 46 69 56 83 45 67 60 95 61 115 0 12 11 35 23 51 81 104 102 133 102 142 0
6 4 12 8 14 10 3 115 164 197 299 36 60 90 155 90 159 0 3 10 19 21 35 38 54
105 196 98 208 -4 7 -3 9 1 4 9 -8 101 163 107 199 1 10 5 21 8 24 11 11 110
234 140 315 10 28 39 104 64 170 26 65 44 126 41 134 -3 9 -3 12 2 8 9 -10
129 351 137 413 1 9 5 20 8 25 3 6 20 69 37 140 17 72 35 146 40 165 5 19 9
42 10 50 2 38 31 144 41 150 16 10 35 114 60 315 39 312 42 711 9 995 -26 224
-116 640 -140 648 -5 2 -7 7 -4 12 4 7 -24 105 -45 155 -4 11 -23 58 -41 105
-18 47 -37 94 -43 105 -5 11 -11 26 -12 33 -8 47 -230 456 -258 474 -6 4 -11
11 -11 15 -1 14 -39 73 -47 73 -4 0 -8 4 -8 10 0 9 -57 89 -86 120 -8 8 -24
27 -35 43 -11 15 -25 25 -30 22 -5 -4 -6 0 -4 8 7 18 -261 281 -277 271 -6 -4
-8 -3 -4 4 3 6 -14 26 -41 46 -27 20 -61 46 -77 58 -16 13 -37 27 -46 33 -20
12 -64 40 -103 67 -39 27 -271 141 -337 166 -198 74 -469 132 -621 132 -46 0
-118 7 -160 15 -42 7 -114 19 -160 24 -78 10 -110 14 -197 28 -32 5 -33 7 -28
37 3 17 10 61 17 98 l11 67 71 21 c90 28 127 46 203 104 69 51 144 142 144
174 0 11 4 22 8 24 13 5 51 94 58 135 4 21 7 54 8 74 0 22 5 35 12 32 6 -2 34
17 62 42 95 85 119 217 61 333 -16 34 -44 73 -61 87 -28 24 -30 30 -29 88 1
34 6 109 11 167 8 81 7 125 -4 192 -8 48 -17 92 -20 97 -4 5 30 12 81 15 268
19 352 38 408 90 30 28 35 40 35 78 0 183 -470 475 -896 558 -122 23 -305 26
-399 5z m145 -1725 c107 -11 203 -20 213 -20 23 0 15 -31 -19 -77 -87 -116
-364 -55 -398 90 -3 15 -3 27 1 27 5 0 96 -9 203 -20z m-5786 -862 c18 -92 29
-147 37 -172 5 -16 9 -40 9 -53 0 -13 3 -22 8 -20 4 3 7 -8 8 -25 1 -16 6 -46
12 -66 6 -20 18 -64 26 -97 31 -117 62 -206 71 -198 4 4 5 3 1 -4 -3 -6 5 -41
18 -76 28 -75 106 -230 118 -235 4 -2 6 -7 3 -12 -6 -10 84 -126 96 -123 5 2
8 0 8 -5 -6 -39 -14 -35 336 -184 77 -33 146 -65 152 -70 7 -6 22 -8 33 -5 11
3 18 2 16 -2 -8 -12 598 -241 676 -256 31 -6 202 -66 228 -80 97 -51 454 -158
630 -189 l95 -17 2 -207 c6 -522 81 -981 233 -1435 33 -97 60 -180 60 -183 0
-4 -25 -4 -55 -2 -30 3 -55 4 -55 3 0 -1 11 -53 25 -115 14 -62 25 -114 23
-115 -2 -2 -55 7 -118 20 -419 85 -979 134 -1375 120 -174 -6 -446 -23 -481
-29 -10 -2 -67 -7 -126 -11 -60 -4 -108 -10 -108 -14 0 -3 24 -12 53 -19 107
-25 200 -89 258 -178 32 -50 69 -140 69 -170 0 -12 4 -25 8 -28 5 -3 10 -54
11 -113 2 -126 -22 -298 -47 -328 -35 -41 -69 -52 -116 -35 -25 9 -34 6 -62
-15 -40 -31 -105 -35 -151 -11 -28 14 -35 14 -67 1 -45 -19 -100 -19 -162 0
-27 8 -72 15 -99 15 -37 0 -60 7 -88 26 -38 25 -119 107 -126 127 -11 31 -80
125 -86 119 -5 -4 -5 -2 -2 4 4 7 -11 45 -32 85 -33 63 -46 78 -85 97 -25 13
-63 25 -83 27 -21 2 -67 6 -103 9 -36 4 -109 3 -162 -2 -86 -6 -99 -5 -112 10
-29 33 4 42 178 46 260 6 345 -22 402 -131 79 -153 127 -230 137 -222 4 3 5 2
2 -1 -5 -8 33 -64 55 -81 8 -6 18 -9 23 -6 4 2 6 -1 5 -9 -5 -20 67 -51 102
-43 27 6 30 11 30 43 0 39 -22 142 -43 202 -19 55 -77 163 -96 180 -22 19 -11
60 16 60 17 -1 73 -70 73 -91 0 -5 5 -7 12 -3 7 4 8 3 4 -4 -4 -6 4 -33 17
-59 30 -60 55 -153 70 -263 l12 -85 63 -3 c40 -2 62 1 62 8 0 6 4 9 9 6 17
-11 21 27 17 153 -3 82 -9 140 -19 163 -8 20 -13 39 -10 41 8 9 -46 104 -81
142 -29 31 -34 41 -25 56 14 27 39 20 72 -21 16 -19 32 -37 36 -40 11 -8 57
-128 70 -183 6 -26 11 -96 11 -156 0 -85 3 -111 15 -121 8 -7 14 -20 13 -28
-5 -25 46 -33 84 -13 30 15 34 21 40 76 10 74 0 251 -17 325 -7 31 -22 77 -33
102 -21 47 -20 52 15 71 14 8 47 -45 57 -93 5 -19 12 -53 18 -75 5 -22 13
-101 18 -175 12 -178 18 -210 40 -210 9 0 24 8 32 18 34 40 50 281 27 407 -32
174 -140 285 -324 335 -52 14 -60 19 -57 37 3 18 -2 22 -30 22 -51 0 -77 5
-72 12 2 3 -16 14 -41 23 -25 10 -74 37 -111 62 -36 24 -71 41 -76 38 -6 -4
-8 -2 -5 3 24 39 -164 56 -268 24 -81 -24 -186 -72 -180 -81 3 -5 -4 -6 -15
-3 -18 5 -47 40 -38 48 9 7 69 35 74 34 4 0 10 5 15 12 4 7 16 14 26 15 10 2
61 15 113 29 63 17 115 25 154 24 43 -2 62 1 68 12 8 15 84 330 99 412 5 29
13 72 19 97 6 25 24 135 40 245 16 110 32 211 35 225 5 25 23 199 31 295 2 28
8 97 14 155 14 131 18 734 7 892 -9 117 -9 118 -45 156 -49 52 -95 106 -93
110 1 1 -13 28 -32 60 -19 31 -45 83 -57 114 -13 31 -28 54 -33 51 -6 -4 -7
-1 -2 6 4 7 3 23 -3 34 -28 59 -91 252 -117 355 -58 235 -89 388 -82 406 10
25 46 20 51 -6z m6189 -2293 c9 -33 24 -94 35 -135 11 -41 29 -118 41 -170 12
-52 26 -113 31 -135 26 -111 80 -432 109 -655 12 -89 28 -250 37 -376 l6 -91
-78 -13 c-44 -7 -155 -27 -249 -45 -93 -18 -171 -31 -173 -30 -2 2 8 51 22
110 21 85 26 132 26 231 0 251 33 671 76 974 23 160 68 393 81 414 8 13 19
-11 36 -79z m-705 -87 c2 -12 -26 -31 -108 -72 -220 -110 -423 -155 -745 -163
-288 -8 -556 18 -845 81 -197 43 -221 53 -202 83 6 9 25 8 82 -7 202 -53 450
-92 695 -111 396 -29 790 38 1030 175 64 37 88 41 93 14z m-1093 -2708 c0
-658 0 -665 -20 -665 -20 0 -20 8 -23 668 l-2 668 22 -3 23 -3 0 -665z m1775
-1077 c0 -8 -57 -176 -84 -251 -9 -23 -41 -103 -71 -178 -31 -74 -53 -140 -49
-146 4 -6 3 -8 -2 -5 -6 3 -16 -9 -23 -26 -8 -18 -51 -108 -97 -201 -46 -93
-81 -172 -78 -177 3 -5 -1 -12 -9 -15 -8 -3 -30 -33 -48 -67 -67 -127 -285
-468 -351 -550 -13 -15 -33 -29 -45 -30 -13 -1 -23 -4 -23 -7 0 -3 -13 -6 -30
-7 -16 -1 -41 -8 -55 -15 -23 -13 -24 -15 -10 -41 8 -15 10 -25 5 -22 -6 4
-10 1 -10 -5 0 -6 -4 -9 -8 -6 -14 8 -105 -81 -96 -95 4 -8 3 -10 -4 -5 -23
14 -72 -141 -72 -226 0 -60 17 -157 36 -211 13 -36 13 -38 -8 -46 -13 -5 -26
-7 -30 -4 -32 18 -58 265 -39 368 20 105 85 208 164 260 37 24 20 35 -57 36
l-56 2 -10 41 c-65 255 -172 465 -309 606 l-61 62 0 484 0 484 765 0 c421 0
765 -3 765 -7z m-7492 -1004 c411 -94 751 -175 756 -179 11 -11 -1 -30 -19
-30 -7 0 -307 68 -667 150 -359 83 -695 160 -745 171 -77 18 -93 25 -93 40 0
11 5 19 10 19 6 0 346 -77 758 -171z m-702 -168 c673 -154 1362 -313 1377
-317 24 -8 17 -40 -8 -37 -20 2 -1455 329 -1487 339 -15 4 -27 44 -14 44 2 0
62 -13 132 -29z m6359 -390 c92 -42 168 -140 210 -273 35 -109 34 -112 -17
-105 -24 4 -93 9 -154 13 l-112 6 -6 -48 c-3 -27 -7 -94 -8 -149 l-3 -100 155
-10 155 -10 -3 -34 c-1 -18 -18 -66 -36 -106 -105 -226 -307 -281 -453 -122
-50 54 -83 117 -115 217 -20 64 -23 96 -23 215 0 118 4 152 23 215 74 237 236
360 387 291z m3102 -73 c85 -31 177 -127 231 -238 33 -68 76 -195 69 -202 -1
0 -76 -6 -167 -12 l-165 -11 -30 -60 c-40 -80 -42 -189 -4 -280 l24 -60 168
-3 c191 -3 181 3 148 -95 -52 -151 -149 -280 -247 -328 -32 -15 -72 -25 -115
-27 -93 -6 -169 29 -247 112 -199 214 -246 644 -102 951 103 222 267 317 437
253z m-1878 -82 c9 -11 5 -24 -19 -60 -42 -62 -76 -149 -91 -230 -14 -83 -2
-157 43 -265 31 -72 31 -74 12 -88 -16 -12 -21 -11 -36 9 -10 13 -30 57 -45
98 -24 64 -27 89 -27 180 1 110 16 176 64 271 48 93 74 116 99 85z m2519 -375
c37 -53 47 -95 47 -191 -1 -108 -23 -175 -70 -206 -24 -16 -30 -16 -54 -3 -14
8 -37 37 -51 64 -22 43 -25 63 -25 150 0 87 3 107 25 150 38 77 91 91 128 36z"/>
<path d="M8920 13157 c0 -18 -5 -38 -10 -43 -7 -7 -6 -11 3 -11 9 0 14 15 16
44 1 24 -1 43 -4 43 -3 0 -5 -15 -5 -33z"/>
<path d="M9697 13152 c-9 -10 -17 -33 -17 -50 0 -36 22 -52 68 -52 25 0 32 6
41 32 10 28 9 36 -7 58 -24 31 -62 37 -85 12z"/>
<path d="M16154 11961 c-52 -23 -97 -78 -118 -143 -20 -61 -20 -88 -2 -88 8 0
16 16 20 41 17 106 89 179 177 179 76 0 151 -78 167 -172 8 -44 32 -65 32 -28
0 54 -25 113 -67 160 -63 70 -130 87 -209 51z"/>
<path d="M16313 11280 c-12 -5 -26 -18 -32 -29 -15 -28 -14 -246 1 -271 10
-15 10 -22 0 -32 -9 -9 -12 -68 -12 -215 0 -203 0 -204 25 -228 30 -31 73 -32
109 -4 l27 21 -4 217 c-3 119 -5 221 -5 226 0 6 2 71 5 146 l4 137 -27 21
c-28 22 -55 25 -91 11z m66 -44 c8 -9 11 -52 9 -127 -3 -110 -4 -114 -26 -117
-45 -7 -52 12 -52 129 0 92 3 109 18 118 24 14 38 13 51 -3z m6 -500 c0 -178
-2 -200 -17 -210 -13 -8 -23 -8 -35 0 -16 10 -18 33 -21 199 -3 202 1 218 47
213 l26 -3 0 -199z"/>
<path d="M16060 11250 c0 -16 7 -20 30 -20 l30 0 0 -355 0 -355 -30 0 c-23 0
-30 -4 -30 -20 0 -18 7 -20 80 -20 73 0 80 2 80 20 0 16 -7 20 -30 20 l-30 0
0 375 0 375 -50 0 c-43 0 -50 -3 -50 -20z"/>
<path d="M15692 10348 c-7 -7 -12 -39 -12 -73 l0 -62 60 -47 61 -47 -3 -62 -3
-62 -40 -3 c-48 -4 -65 15 -65 70 0 21 -4 38 -10 38 -5 0 -10 -22 -10 -49 0
-59 22 -81 82 -81 57 0 78 27 78 96 0 50 -3 59 -31 85 -17 16 -45 37 -61 47
-33 19 -41 41 -36 98 3 37 5 39 42 42 46 4 56 -7 56 -65 0 -24 5 -43 10 -43
17 0 12 97 -6 114 -18 19 -94 22 -112 4z"/>
<path d="M15880 10185 c0 -162 2 -177 20 -195 13 -13 33 -20 59 -20 68 0 71 8
71 211 0 113 -4 179 -10 179 -6 0 -10 -65 -10 -174 0 -192 -2 -200 -62 -194
l-33 3 -3 183 c-2 153 -5 182 -17 182 -13 0 -15 -27 -15 -175z"/>
<path d="M16092 10168 c2 -142 6 -192 16 -196 9 -3 12 35 13 165 l1 168 42
-165 c37 -149 43 -165 64 -168 l22 -3 0 195 c0 124 -4 196 -10 196 -6 0 -10
-64 -10 -172 0 -99 -4 -167 -9 -158 -5 8 -26 86 -47 173 -36 146 -40 157 -61
157 l-23 0 2 -192z"/>
<path d="M16310 10165 l0 -195 53 0 c31 0 61 6 75 16 21 15 22 21 22 179 0
194 -1 195 -91 195 l-59 0 0 -195z m114 167 c10 -16 9 -323 -1 -333 -6 -6 -28
-9 -49 -7 l-39 3 -3 173 -2 172 44 0 c25 0 47 -4 50 -8z"/>
<path d="M16551 10308 c-31 -150 -60 -323 -55 -327 9 -10 23 22 29 71 l7 48
43 0 42 0 12 -60 c7 -33 16 -60 22 -60 13 0 11 16 -25 205 -25 133 -35 171
-48 173 -12 2 -19 -9 -27 -50z m54 -140 l7 -48 -36 0 c-20 0 -36 3 -36 7 0 4
8 50 17 102 l17 96 12 -54 c7 -30 16 -76 19 -103z"/>
<path d="M16654 10344 c50 -122 76 -224 76 -296 0 -45 4 -78 10 -78 6 0 10 36
10 88 0 74 6 104 35 192 32 96 37 127 16 104 -5 -5 -19 -40 -31 -79 -12 -38
-26 -74 -30 -78 -4 -5 -20 29 -36 74 -16 46 -35 85 -43 87 -10 4 -12 0 -7 -14z"/>
<path d="M18210 7095 c-6 -8 -8 -20 -4 -26 5 -8 3 -9 -5 -4 -8 4 -23 -3 -39
-17 -60 -55 -155 -120 -231 -159 l-81 -41 2 -331 3 -331 120 -23 c66 -13 135
-26 154 -28 18 -3 38 -8 45 -13 6 -4 21 -7 34 -7 l22 -1 0 498 c0 274 -2 498
-4 498 -2 0 -9 -7 -16 -15z"/>
<path d="M14916 6687 c-49 -232 -96 -407 -184 -677 -26 -80 -47 -149 -48 -155
0 -5 -11 -32 -22 -58 -12 -27 -22 -53 -22 -58 0 -5 -4 -17 -9 -27 -6 -9 -38
-87 -71 -172 -34 -85 -68 -167 -76 -183 -8 -15 -12 -32 -9 -37 3 -6 2 -10 -4
-10 -6 0 -14 -12 -17 -27 -4 -16 -11 -34 -17 -40 -5 -7 -6 -13 -1 -13 5 0 4
-4 -1 -8 -6 -4 -54 -92 -106 -197 -53 -104 -105 -206 -116 -225 -68 -117 -93
-162 -93 -167 0 -2 -7 -11 -16 -20 -8 -9 -12 -23 -9 -31 3 -9 3 -13 -1 -9 -6
6 -74 -83 -74 -96 0 -9 -198 -298 -229 -333 -10 -12 -3 -28 14 -31 6 -1 35
-11 66 -22 133 -48 367 -99 604 -133 113 -16 549 -15 665 1 47 6 126 18 175
27 l90 16 43 79 c23 44 39 85 36 91 -4 7 -3 8 4 4 11 -6 48 50 44 67 -1 4 2 7
8 7 5 0 10 7 10 15 0 8 3 15 8 15 4 0 18 17 32 38 34 52 102 143 122 166 10
10 14 24 11 30 -3 6 -2 8 2 3 12 -10 76 62 68 77 -3 6 -3 8 2 4 11 -11 36 12
28 25 -3 6 -1 7 5 3 6 -4 19 1 29 11 34 33 97 80 153 113 l54 32 18 -22 c19
-23 18 -23 -32 -52 -31 -17 -48 -33 -44 -40 4 -7 3 -8 -5 -4 -27 17 -269 -219
-257 -250 3 -7 0 -11 -7 -8 -7 2 -27 -16 -45 -42 -18 -25 -27 -42 -20 -38 7 4
3 -3 -9 -15 -39 -37 -104 -141 -97 -153 4 -6 3 -8 -3 -5 -5 3 -29 -32 -54 -78
-24 -47 -49 -85 -56 -85 -13 0 -20 -95 -29 -400 -8 -318 32 -677 115 -1015 16
-66 31 -128 33 -138 3 -17 -7 -19 -112 -20 l-115 -2 -28 -52 c-21 -40 -28 -66
-28 -111 -1 -48 15 -140 24 -143 1 0 56 -6 122 -12 l119 -12 7 -40 c4 -22 12
-84 19 -137 44 -368 225 -715 453 -866 51 -34 57 -24 57 102 0 97 0 98 23 92
47 -14 303 -18 374 -7 148 23 172 38 332 203 130 134 243 228 275 228 6 0 36
-33 66 -72 30 -40 106 -125 167 -189 62 -64 109 -120 105 -125 -4 -5 9 6 29
24 19 17 40 32 46 32 6 0 14 7 17 16 5 14 4 15 -8 5 -12 -10 -13 -8 -9 11 3
13 14 32 23 43 18 21 40 59 40 70 0 4 -8 4 -17 1 -14 -6 -14 -3 3 15 10 11 18
31 16 43 -2 15 0 17 6 7 13 -18 18 -8 48 91 30 99 64 252 64 291 0 16 7 30 16
34 16 6 552 -25 565 -33 3 -2 9 -59 12 -126 22 -448 189 -885 436 -1142 151
-156 301 -237 481 -260 25 -3 243 1 485 8 462 15 489 18 608 68 349 147 615
589 704 1168 25 163 24 511 -1 675 -36 239 -97 436 -191 627 -165 332 -418
550 -682 588 -98 13 -941 -15 -1014 -34 -392 -105 -706 -560 -803 -1165 -9
-52 -18 -96 -21 -99 -5 -6 -555 28 -567 34 -3 2 -9 39 -13 82 -10 119 -51 308
-90 422 -67 191 -161 347 -276 458 l-59 58 12 334 c7 210 8 335 3 337 -6 2 -9
65 -8 151 3 263 -37 678 -88 908 -10 49 -21 100 -23 114 -3 14 -14 59 -26 100
-12 41 -25 89 -30 105 -14 52 -45 130 -53 133 -4 2 -5 7 -3 11 7 11 -101 216
-113 214 -6 -2 -8 4 -4 14 5 12 3 14 -7 8 -9 -5 -11 -4 -6 4 4 6 -19 46 -55
94 -56 73 -86 108 -171 197 -40 42 -131 124 -168 150 -19 14 -42 33 -51 42
-48 46 -362 232 -373 221 -3 -4 -6 -1 -6 5 0 6 -10 14 -22 18 -13 4 -39 17
-58 28 -19 12 -84 41 -145 65 -60 23 -119 47 -131 53 -118 56 -408 138 -790
223 -19 4 -23 -5 -48 -128z m2234 -2957 c0 -11 -2 -20 -6 -20 -3 0 -193 -43
-422 -96 -229 -52 -534 -122 -677 -155 -143 -32 -293 -67 -333 -76 -56 -13
-75 -14 -84 -5 -8 8 -8 15 -3 21 6 5 120 34 255 65 295 67 1151 263 1200 275
57 14 70 13 70 -9z m70 -309 c0 -11 -8 -22 -17 -25 -16 -5 -328 -76 -1053
-242 -107 -24 -251 -57 -320 -73 -69 -16 -128 -27 -132 -24 -20 11 -4 33 30
42 20 5 325 76 677 156 352 81 674 155 715 165 97 23 100 23 100 1z m2898
-832 c109 -54 203 -183 252 -347 12 -40 21 -75 19 -77 -2 -2 -76 -8 -164 -14
-181 -13 -180 -12 -211 -105 -22 -66 -15 -193 14 -258 l21 -48 170 0 c94 0
171 -4 171 -8 0 -20 -44 -142 -71 -198 -80 -163 -229 -268 -357 -249 -157 22
-287 167 -359 402 -24 81 -27 102 -27 263 0 202 15 276 84 417 80 162 198 253
330 253 54 0 78 -6 128 -31z m-2904 -230 c9 -49 7 -59 -12 -59 -14 0 -17 7
-14 45 5 52 17 59 26 14z m3511 -203 c70 -70 73 -303 4 -390 -26 -33 -68 -34
-97 -3 -76 81 -73 336 5 397 34 26 59 25 88 -4z m-3518 -192 c-7 -44 -65 -170
-85 -187 -13 -10 -15 -8 -9 18 3 17 11 70 18 118 l12 87 35 0 c34 0 35 -1 29
-36z m163 -157 c0 -2 -10 -12 -22 -23 l-23 -19 19 23 c18 21 26 27 26 19z
m-53 -199 c-3 -8 -6 -5 -6 6 -1 11 2 17 5 13 3 -3 4 -12 1 -19z m127 -264 c3
-8 2 -12 -4 -9 -6 3 -10 10 -10 16 0 14 7 11 14 -7z"/>
<path d="M3772 1555 c0 -16 2 -22 5 -12 2 9 2 23 0 30 -3 6 -5 -1 -5 -18z"/>
<path d="M3780 1492 c0 -7 6 -12 13 -12 9 0 9 -2 0 -8 -7 -4 -9 -13 -4 -21 6
-10 10 -9 15 5 4 10 0 24 -9 33 -10 10 -15 11 -15 3z"/>
<path d="M3836 1354 c-8 -20 -8 -24 2 -24 4 0 8 9 9 20 2 24 -3 26 -11 4z"/>
<path d="M17495 1309 c-4 -6 -5 -12 -2 -15 2 -3 7 2 10 11 7 17 1 20 -8 4z"/>
<path d="M13936 354 c-19 -18 -19 -20 -6 -45 11 -19 50 -19 2610 -19 2560 0
2599 0 2610 19 13 25 13 27 -6 45 -14 14 -264 16 -2604 16 -2340 0 -2590 -2
-2604 -16z"/>
</g>
</svg>
