<?xml version="1.0" standalone="no"?>
<!DOCTYPE svg PUBLIC "-//W3C//DTD SVG 20010904//EN"
 "http://www.w3.org/TR/2001/REC-SVG-20010904/DTD/svg10.dtd">
<svg version="1.0" xmlns="http://www.w3.org/2000/svg"
 width="2880.000000pt" height="2352.000000pt" viewBox="0 0 2880.000000 2352.000000"
 preserveAspectRatio="xMidYMid meet">

<g transform="translate(0.000000,2352.000000) scale(0.100000,-0.100000)"
fill="#000000" stroke="none">
<path d="M8506 21339 c-254 -42 -639 -284 -797 -501 -28 -39 -64 -77 -81 -86
-17 -10 -72 -43 -122 -74 -77 -47 -106 -59 -176 -72 -459 -87 -715 -271 -776
-558 -28 -129 -4 -306 60 -451 l24 -54 -158 5 c-277 9 -475 -29 -677 -129
-100 -49 -137 -74 -203 -136 -127 -120 -204 -252 -248 -428 -117 -461 30 -830
404 -1016 49 -24 90 -44 91 -45 2 0 -11 -38 -28 -84 -59 -163 -84 -324 -69
-444 10 -78 33 -157 57 -195 15 -23 15 -23 59 56 31 57 52 84 71 92 87 35 430
161 438 161 6 0 16 -19 23 -42 18 -59 171 -537 182 -568 5 -14 46 -140 91
-280 45 -140 103 -322 130 -403 l48 -149 -162 -201 c-89 -111 -170 -215 -181
-232 -10 -16 -29 -41 -42 -56 l-24 -25 195 -445 194 -444 1097 -3 1096 -2 -5
-29 c-15 -74 -19 -291 -7 -376 37 -271 127 -541 289 -864 35 -68 74 -141 87
-162 31 -49 30 -56 -3 -62 -504 -94 -928 -141 -1363 -150 l-94 -2 -12 -40 c-7
-22 -35 -110 -62 -195 -28 -85 -127 -391 -221 -680 -93 -289 -247 -763 -341
-1055 -94 -291 -194 -600 -222 -685 -27 -85 -103 -319 -168 -520 -65 -201
-142 -437 -170 -524 -28 -88 -102 -317 -165 -510 -195 -602 -454 -1404 -510
-1576 -46 -144 -141 -438 -336 -1036 -28 -87 -58 -183 -67 -212 -14 -50 -17
-53 -41 -47 -14 4 -29 10 -34 14 -4 4 58 219 138 477 80 258 182 586 226 729
45 143 116 373 159 510 43 138 155 500 250 805 94 305 193 625 220 710 27 85
96 310 155 500 59 190 140 451 180 580 40 129 110 354 155 500 45 146 103 335
130 420 27 85 67 216 90 290 23 74 63 205 90 290 27 85 67 216 90 290 23 74
63 205 90 290 27 85 66 214 88 285 23 72 59 189 81 260 23 72 41 136 41 143 0
8 -17 12 -49 12 -44 0 -245 28 -330 46 l-34 7 7 -39 c13 -72 25 -238 26 -353
0 -98 -3 -118 -21 -147 -11 -19 -24 -34 -29 -34 -4 0 -10 24 -14 53 -3 28 -11
79 -16 112 -6 33 -17 100 -25 149 -15 98 -10 91 -136 191 l-57 45 -6 -73 c-3
-39 -8 -117 -11 -172 -11 -227 -26 -484 -31 -542 l-5 -62 -67 -20 c-118 -34
-105 -39 -150 57 l-40 86 -7 -48 c-8 -49 -2 -174 16 -361 l11 -110 -70 -410
-71 -410 -271 -890 c-149 -489 -374 -1227 -500 -1640 -126 -412 -342 -1121
-481 -1575 -222 -725 -274 -908 -251 -886 3 3 14 -2 25 -11 15 -13 18 -14 12
-3 -5 9 -5 12 1 7 5 -5 9 -18 9 -30 0 -11 7 -22 15 -24 13 -4 13 -3 0 7 -11 9
-12 13 -2 17 6 2 10 8 7 13 -3 4 4 6 16 3 11 -3 23 -12 26 -19 3 -8 9 -14 15
-14 5 0 6 4 3 10 -3 6 1 7 9 4 9 -3 16 -16 16 -27 0 -19 1 -19 13 -4 11 15 15
16 41 2 16 -9 39 -17 50 -19 12 -2 22 -12 24 -24 4 -25 -24 -82 -40 -82 -9 0
-9 -3 0 -12 7 -7 12 -20 12 -30 0 -15 -4 -16 -27 -8 -28 10 -28 10 -5 -6 12
-9 22 -22 22 -28 0 -6 -5 -4 -11 4 -8 12 -9 9 -5 -12 4 -16 2 -28 -4 -28 -5 0
-10 5 -10 10 0 6 -4 10 -9 10 -5 0 -3 -13 5 -29 20 -40 1 -95 -30 -87 -11 3
-25 6 -31 6 -5 0 -4 4 4 9 22 14 21 37 -1 38 -20 2 -20 1 -2 -12 18 -13 17
-14 -9 -20 -15 -4 -33 -3 -40 2 -6 5 -25 10 -40 11 -15 1 -37 6 -47 12 -10 6
-21 6 -24 2 -3 -5 36 -19 87 -31 51 -13 106 -29 122 -36 50 -22 212 -65 242
-64 15 0 22 3 16 6 -20 8 -13 85 14 153 3 8 6 24 7 35 1 20 36 35 36 16 0 -6
-6 -11 -12 -11 -7 0 -2 -7 10 -16 23 -16 47 -11 36 8 -5 7 -2 9 8 6 9 -4 15 0
15 8 0 16 -13 19 -22 4 -3 -5 -11 -10 -16 -10 -6 0 -8 4 -5 8 3 5 -6 15 -19
22 -26 14 -33 30 -14 30 7 0 9 9 6 21 -3 12 -3 18 0 15 4 -3 11 -2 18 4 7 6
20 4 37 -4 15 -8 30 -11 34 -8 4 4 4 1 -1 -7 -5 -9 -3 -12 6 -9 8 3 32 -1 54
-9 39 -14 62 -21 78 -22 5 -1 5 -6 1 -13 -5 -8 -2 -9 9 -5 10 4 28 2 41 -4 21
-10 22 -14 12 -42 -6 -18 -15 -39 -20 -47 -8 -13 -7 -13 7 0 9 8 110 224 225
480 115 256 415 922 667 1480 251 558 553 1229 671 1490 927 2060 930 2065
950 2063 10 -2 46 -4 79 -6 59 -4 63 -6 300 -167 132 -90 353 -240 490 -333
138 -93 398 -268 578 -390 180 -122 455 -308 610 -412 560 -378 966 -651 1157
-780 391 -265 708 -479 834 -564 l129 -86 -1043 -3 -1043 -2 5 -83 c5 -98 26
-144 91 -204 84 -77 5 -73 1336 -73 l1185 0 124 -82 123 -81 -103 -42 c-148
-60 -223 -96 -340 -161 -548 -305 -976 -759 -1243 -1317 -64 -134 -101 -229
-321 -830 -68 -187 -127 -343 -130 -348 -3 -5 -99 -9 -215 -9 l-209 0 0 -245
0 -245 120 0 c66 0 120 -3 120 -7 -1 -27 -22 -32 -125 -35 l-110 -3 -2 -303
c-2 -281 -4 -307 -22 -345 -61 -127 -44 -267 53 -423 l25 -41 -40 -48 c-58
-70 -103 -157 -136 -260 -25 -83 -28 -102 -27 -240 0 -147 1 -152 37 -249 20
-54 55 -130 78 -170 61 -102 202 -238 309 -299 450 -253 1019 -81 1235 374 54
114 75 212 75 349 0 183 -49 337 -155 486 l-45 62 34 55 c49 83 71 159 71 252
0 70 -4 89 -31 143 l-31 62 137 0 c155 0 216 13 275 60 57 45 93 100 111 169
34 136 -33 278 -164 343 -47 23 -50 23 -485 26 -389 3 -438 5 -433 18 3 9 6
18 6 20 0 2 1231 4 2736 4 l2735 0 -3 -22 -3 -23 -485 0 -485 0 -50 -25 c-112
-55 -170 -147 -170 -270 0 -55 6 -87 22 -121 27 -60 92 -125 152 -153 l46 -21
1200 0 1200 0 57 28 c214 105 227 402 23 522 -67 40 -150 46 -560 44 l-380 -1
-3 21 -3 21 775 0 776 0 0 245 0 245 -770 0 -770 0 0 1140 0 1140 273 0 c308
0 316 2 400 79 114 105 124 289 22 409 -32 39 -120 92 -152 92 -12 0 -25 5
-28 10 -3 6 2 10 12 10 30 0 118 56 147 94 39 51 56 109 56 187 l0 69 -217 0
-218 0 27 -23 28 -22 -313 -436 c-171 -240 -378 -528 -459 -641 l-148 -205 0
-494 c0 -272 -3 -700 -7 -952 l-6 -457 -2635 0 -2634 0 5 22 c18 85 289 796
352 924 154 315 370 587 640 803 182 147 443 295 656 375 104 38 322 97 434
116 65 12 117 29 88 30 -8 0 -5 8 8 21 15 15 18 24 9 34 -7 9 -8 14 0 17 5 1
2 8 -9 15 -20 13 -24 1 -8 -25 8 -12 2 -16 -17 -13 -5 1 -4 -4 2 -12 10 -11 9
-17 -2 -26 -11 -9 -17 -8 -28 7 -13 19 -18 22 -38 22 -5 0 -10 7 -10 15 0 8
-8 15 -17 16 -11 0 -13 3 -5 6 6 2 9 10 5 16 -4 7 0 8 11 4 14 -5 16 -3 11 12
-4 13 4 28 25 49 16 17 30 35 30 41 0 6 5 11 10 11 6 0 10 -7 10 -15 0 -9 6
-12 16 -8 15 5 15 7 0 15 -9 5 -16 15 -16 23 0 17 42 14 65 -5 14 -12 14 -15
-1 -31 -10 -11 -14 -22 -11 -26 4 -3 7 -3 7 2 0 4 6 2 14 -5 8 -6 12 -18 9
-26 -3 -8 1 -14 10 -14 9 0 18 -8 20 -18 4 -16 5 -16 6 1 1 12 5 16 14 11 9
-6 9 -5 0 8 -7 8 -11 18 -8 22 3 3 -1 2 -7 -4 -24 -20 -34 -3 -15 27 4 6 2 15
-4 19 -7 4 -9 3 -5 -4 3 -6 2 -13 -3 -16 -12 -8 -22 19 -10 31 11 11 -38 66
-51 58 -6 -3 -7 1 -4 9 3 9 10 16 16 16 5 0 6 -5 2 -12 -4 -7 -3 -8 4 -4 6 4
9 13 6 20 -8 21 21 39 37 24 8 -7 31 -22 51 -33 21 -10 34 -22 30 -25 -4 -3
-8 -12 -10 -20 -3 -12 -1 -12 9 -3 10 10 15 9 25 -5 17 -21 17 -33 3 -29 -6 1
-14 -4 -16 -10 -7 -21 16 -15 29 7 17 26 25 25 32 -4 3 -14 13 -23 23 -22 9 0
19 -7 21 -16 2 -13 -1 -16 -12 -12 -9 3 -16 1 -16 -6 0 -6 4 -9 9 -5 6 3 10
-3 10 -12 0 -10 3 -31 7 -47 5 -22 4 -27 -6 -21 -8 5 -11 4 -6 -3 3 -6 3 -13
-2 -16 -4 -2 -9 4 -9 15 -1 10 4 19 10 20 7 0 3 4 -8 8 -13 6 -23 4 -28 -6 -5
-8 -17 -12 -30 -8 -20 5 -20 5 -4 -5 10 -7 25 -9 33 -6 8 3 14 -1 14 -10 0 -8
-4 -13 -8 -10 -5 3 -9 -1 -9 -9 0 -8 4 -12 9 -9 4 3 8 -4 8 -16 0 -12 -4 -18
-10 -15 -5 3 -10 -1 -10 -9 0 -22 17 -20 24 2 3 9 5 19 4 22 -1 3 10 18 25 33
21 24 24 33 16 53 -13 36 -11 54 6 54 8 0 15 5 15 11 0 5 -4 7 -10 4 -6 -4 -7
1 -3 11 4 12 3 15 -5 10 -7 -4 -12 -2 -12 3 0 15 11 13 33 -4 19 -14 17 -45
-6 -73 -5 -7 -8 -15 -5 -17 9 -9 130 173 188 281 23 43 48 86 55 94 7 8 14 20
16 25 3 6 15 27 28 48 21 34 26 36 42 25 10 -7 196 -133 413 -280 l394 -268
192 0 192 0 -33 -27 c-34 -29 -59 -78 -59 -116 0 -34 -50 -132 -106 -207 -100
-135 -304 -422 -304 -427 0 -3 -28 -43 -62 -90 l-62 -86 25 -21 c18 -16 521
-375 677 -484 17 -11 85 79 729 970 390 541 712 991 716 1000 3 9 99 145 212
303 146 202 204 290 196 298 -7 7 -14 7 -23 -1 -7 -6 -103 -137 -213 -291
-110 -154 -205 -279 -210 -278 -17 3 -234 161 -235 170 0 14 89 134 142 193
l50 54 -1534 0 -1535 0 -464 411 c-255 226 -516 457 -579 513 -162 145 -555
493 -2147 1904 -765 678 -1394 1240 -1397 1248 -3 8 -10 76 -16 152 -6 75 -15
184 -20 242 -5 58 -17 188 -25 290 -8 102 -20 235 -25 295 -6 61 -17 193 -25
295 -27 340 -37 414 -75 575 -52 215 -84 354 -105 450 -10 44 -28 126 -41 182
-13 57 -24 110 -24 119 0 8 22 39 49 67 50 52 50 53 101 247 28 107 53 202 56
211 2 9 -93 149 -231 340 l-234 324 69 7 c88 9 161 40 200 85 28 32 36 61 30
118 -3 42 -59 144 -113 207 l-56 66 39 27 c97 68 140 193 117 345 l-7 45 63
35 c37 21 102 74 162 135 111 110 162 194 207 335 32 105 32 306 0 428 -56
209 -193 386 -373 482 l-59 31 39 52 c88 118 129 234 138 387 9 170 -25 332
-91 428 l-33 47 25 55 c51 115 63 232 37 366 -39 205 -178 378 -386 482 l-95
48 48 55 c134 148 178 364 117 566 -29 96 -59 142 -136 213 -136 124 -304 172
-497 139z m-445 -1389 c174 -348 408 -629 709 -850 47 -34 87 -64 89 -66 7 -6
-119 -225 -203 -354 -138 -210 -321 -414 -481 -535 -79 -59 -232 -149 -282
-166 -18 -6 -33 -12 -33 -14 0 -2 -10 -59 -22 -127 -30 -170 -33 -532 -5 -621
21 -66 82 -131 172 -186 57 -35 173 -81 203 -81 10 0 38 -32 69 -78 28 -42
148 -216 266 -387 135 -194 211 -312 203 -316 -6 -4 -58 -9 -116 -12 -58 -4
-204 -13 -325 -21 -121 -9 -285 -20 -365 -26 -80 -5 -177 -12 -216 -16 l-72
-6 -41 59 c-22 32 -67 94 -99 138 -32 44 -198 271 -367 505 -169 234 -349 482
-400 551 l-92 126 106 13 c122 15 137 24 181 110 34 67 55 150 65 249 4 41 15
88 25 105 9 17 31 75 48 129 35 108 71 167 133 220 38 33 171 107 192 107 16
0 81 32 114 57 42 31 78 94 94 164 9 39 17 55 26 52 8 -3 13 3 13 17 0 18 -3
20 -14 11 -11 -9 -14 3 -19 71 -4 46 -10 97 -13 113 l-7 30 34 -28 c66 -53
107 -69 184 -70 79 -2 115 11 135 48 11 20 10 26 -3 40 -15 14 -21 14 -73 -1
-66 -19 -111 -10 -179 35 -57 38 -97 54 -104 42 -4 -6 -18 24 -31 67 -13 42
-43 121 -66 175 l-43 99 34 14 c19 8 37 14 39 14 3 0 31 12 63 26 167 77 286
192 359 349 36 77 64 185 64 244 0 32 8 57 16 49 1 -2 17 -32 35 -68z m-307
-1066 c17 -7 24 -13 16 -14 -18 0 -116 55 -125 71 -4 6 12 -2 36 -16 23 -15
56 -33 73 -41z m156 1 c-14 -8 -34 -14 -45 -14 -13 0 -7 5 15 13 47 18 61 18
30 1z m693 -2009 c76 -20 127 -48 178 -98 45 -44 67 -95 114 -263 9 -33 27
-93 40 -133 13 -41 22 -72 20 -70 -5 5 -400 552 -409 566 -9 15 -8 15 57 -2z
m1200 -5724 c265 -203 806 -615 1202 -917 1642 -1252 2293 -1748 2708 -2065
240 -183 437 -336 437 -339 -1 -3 -9 -16 -20 -29 l-19 -23 -2460 1843 c-1353
1014 -2460 1846 -2461 1849 0 7 98 47 118 48 7 1 230 -165 495 -367z m4717
-3108 c48 -35 65 -64 36 -64 -16 0 -38 24 -30 33 3 3 -3 3 -15 0 -14 -3 -23 0
-27 11 -3 9 -11 13 -17 9 -6 -4 -4 -10 6 -18 15 -11 15 -14 -3 -30 -26 -23
-26 -39 0 -23 11 7 20 18 20 25 0 16 26 17 36 1 5 -7 2 -9 -9 -5 -11 4 -14 2
-10 -9 3 -8 13 -14 22 -13 33 3 52 -1 46 -11 -3 -5 -2 -10 4 -10 5 0 8 14 6
31 -3 25 -1 28 10 19 8 -6 11 -19 8 -28 -4 -15 -3 -15 6 -2 7 9 14 11 19 5 4
-6 19 -16 35 -24 15 -8 27 -20 27 -26 0 -16 -45 -57 -54 -48 -4 4 -4 -1 0 -10
4 -12 -1 -25 -15 -38 -11 -11 -24 -31 -27 -44 -3 -14 -10 -25 -15 -25 -5 0 -9
-6 -9 -14 0 -8 -9 -21 -20 -29 -11 -8 -17 -17 -13 -21 4 -4 -1 -4 -10 0 -13 5
-15 10 -8 17 14 14 14 27 0 27 -5 0 -7 -4 -4 -10 3 -5 -1 -10 -10 -10 -12 0
-15 5 -11 16 5 14 4 15 -9 4 -12 -10 -18 -10 -30 0 -8 7 -13 16 -10 20 3 5 0
12 -6 16 -7 4 -9 3 -5 -4 3 -6 2 -13 -4 -17 -6 -3 -13 1 -16 9 -3 9 -11 13
-17 9 -6 -4 -8 0 -4 10 4 11 2 14 -9 10 -8 -3 -22 3 -30 13 -9 11 -13 13 -9 7
4 -8 1 -11 -9 -7 -12 4 -13 11 -6 24 12 22 -6 32 -32 18 -11 -5 -18 -5 -18 0
0 14 71 104 78 98 3 -3 10 -2 16 4 7 5 18 5 26 0 17 -10 12 -18 -16 -23 -32
-6 -54 -18 -54 -30 0 -5 9 -2 20 8 19 17 20 17 21 -1 1 -10 1 -22 0 -26 0 -5
4 -8 9 -8 6 0 8 11 4 25 -4 16 -2 25 6 25 6 0 8 -5 5 -10 -6 -10 17 -40 31
-40 5 0 3 5 -4 12 -7 7 -11 21 -11 33 1 15 2 16 6 4 2 -10 14 -20 26 -23 18
-5 20 -8 7 -16 -11 -7 -7 -9 15 -7 17 1 31 -2 32 -8 2 -5 -13 -10 -32 -10 -21
0 -35 -4 -35 -12 0 -6 11 -11 24 -10 14 1 24 -2 23 -8 -1 -5 -12 -10 -24 -9
-13 0 -23 -4 -23 -9 0 -4 17 -6 37 -2 l37 6 -22 -24 c-17 -18 -19 -24 -7 -24
8 0 15 5 15 10 0 6 9 2 20 -8 11 -10 20 -13 20 -7 0 7 -5 12 -11 12 -5 0 -7 5
-3 12 4 7 3 8 -4 4 -19 -12 -14 12 6 24 16 11 16 11 0 6 -12 -4 -18 0 -18 10
0 12 6 15 24 10 14 -3 28 -1 32 6 4 7 3 8 -4 4 -16 -10 -34 3 -25 17 5 7 8 21
8 31 0 11 6 21 13 23 8 3 10 -2 6 -14 -3 -10 2 -7 10 7 l15 25 1 -27 c0 -14
-6 -29 -12 -31 -7 -3 -4 -6 7 -6 16 -1 20 5 20 29 0 17 -2 31 -5 31 -39 10
-60 3 -69 -24 -6 -16 -15 -26 -21 -22 -6 4 -7 12 -3 19 4 7 1 4 -8 -6 -9 -9
-19 -14 -23 -11 -3 4 1 15 11 25 9 11 11 18 5 18 -7 0 -12 -4 -12 -10 0 -5
-10 -10 -22 -10 -19 0 -20 2 -8 10 13 8 12 10 -2 10 -10 0 -18 5 -18 10 0 6 4
10 8 10 4 0 13 14 19 31 10 26 10 29 -2 19 -8 -7 -17 -20 -20 -31 -4 -11 -11
-17 -16 -13 -6 3 -5 12 3 22 8 10 9 13 1 9 -6 -4 -14 -3 -18 3 -3 5 -1 10 6
10 7 0 9 3 6 6 -9 9 11 44 25 44 7 0 6 -5 -2 -15 -7 -9 -10 -18 -7 -21 3 -3
13 8 22 25 8 17 13 31 10 31 -4 0 -3 5 0 10 9 14 10 14 65 -26z m2478 -230
c49 -70 63 -104 43 -104 -12 0 -121 151 -121 167 0 30 29 7 78 -63z m-2468 56
c0 -5 -5 -10 -11 -10 -5 0 -7 5 -4 10 3 6 8 10 11 10 2 0 4 -4 4 -10z m-210
-40 c0 -5 -5 -10 -11 -10 -5 0 -7 5 -4 10 3 6 8 10 11 10 2 0 4 -4 4 -10z
m2465 -210 c32 -50 55 -94 52 -97 -13 -13 -34 8 -79 79 -58 92 -65 108 -45
108 8 0 41 -41 72 -90z m-2501 -71 c-6 -11 -24 -2 -24 11 0 5 7 7 15 4 8 -4
12 -10 9 -15z m46 -29 c0 -5 -5 -10 -11 -10 -5 0 -7 5 -4 10 3 6 8 10 11 10 2
0 4 -4 4 -10z m2253 -78 c53 -82 69 -122 48 -122 -11 0 -131 182 -131 198 0
32 30 4 83 -76z m-199 -146 c39 -111 53 -163 46 -170 -8 -8 -14 -6 -20 4 -20
33 -110 314 -105 328 10 27 22 1 79 -162z m-208 -97 c20 -209 19 -260 -5 -233
-4 5 -16 104 -26 219 -22 265 -21 249 -2 243 8 -3 19 -74 33 -229z m-199 154
c-4 -38 -12 -140 -18 -228 -6 -88 -16 -164 -20 -169 -24 -26 -25 23 -8 224 10
118 18 221 19 228 0 6 7 12 16 12 15 0 16 -9 11 -67z m763 -193 c11 -11 20
-29 20 -40 0 -11 -9 -29 -20 -40 -11 -11 -29 -20 -40 -20 -11 0 -29 9 -40 20
-11 11 -20 29 -20 40 0 11 9 29 20 40 11 11 29 20 40 20 11 0 29 -9 40 -20z
m-152 -196 c41 -28 18 -104 -31 -104 -53 0 -77 75 -35 104 12 9 27 16 33 16 6
0 21 -7 33 -16z m-670 -263 c85 -43 133 -117 140 -214 21 -275 -356 -372 -484
-124 -26 49 -30 139 -9 193 29 77 95 139 175 165 40 14 133 3 178 -20z
m-10233 -1129 c-3 -3 -11 0 -18 7 -9 10 -8 11 6 5 10 -3 15 -9 12 -12z m6313
-1686 c65 -70 66 -147 2 -235 l-30 -41 -39 20 c-22 11 -79 32 -128 47 -80 24
-103 27 -248 27 -174 1 -227 -9 -352 -65 l-63 -28 -25 33 c-33 43 -55 98 -55
138 0 38 30 93 69 125 26 22 28 22 427 23 l401 0 41 -44z"/>
<path d="M7630 19258 c-41 -11 -84 -41 -79 -55 3 -6 25 -3 59 8 111 37 222 15
321 -63 47 -37 52 -39 67 -24 15 14 13 19 -17 50 -78 80 -231 117 -351 84z"/>
<path d="M8260 19081 c-95 -29 -190 -112 -235 -206 -28 -56 -30 -69 -33 -208
l-4 -147 -66 6 c-37 4 -74 8 -82 8 -9 1 -15 -7 -15 -19 0 -17 11 -21 94 -32
52 -7 97 -10 100 -7 3 3 5 73 6 157 0 152 0 153 33 219 37 77 91 128 171 166
71 33 127 26 235 -28 91 -45 96 -46 96 -26 0 25 -57 63 -139 95 -81 31 -115
36 -161 22z"/>
<path d="M8150 18871 c0 -6 -7 -11 -15 -11 -24 0 -17 -37 13 -65 68 -64 144
-90 233 -80 47 6 58 10 63 28 8 34 -13 46 -97 57 -76 9 -115 24 -169 62 -16
11 -28 15 -28 9z m187 -91 c90 -12 106 -20 36 -20 -55 0 -140 25 -163 47 -12
12 -8 12 17 -1 18 -9 67 -21 110 -26z"/>
<path d="M7707 18704 c-8 -8 1 -24 14 -24 5 0 9 7 9 15 0 15 -12 20 -23 9z"/>
<path d="M7670 18625 c0 -8 7 -15 15 -15 8 0 15 7 15 15 0 8 -7 15 -15 15 -8
0 -15 -7 -15 -15z"/>
<path d="M8170 18531 c0 -12 6 -21 16 -21 9 0 14 7 12 17 -5 25 -28 28 -28 4z"/>
<path d="M8360 18524 c0 -17 22 -14 28 4 2 7 -3 12 -12 12 -9 0 -16 -7 -16
-16z"/>
<path d="M8280 18515 c0 -8 7 -15 15 -15 8 0 15 7 15 15 0 8 -7 15 -15 15 -8
0 -15 -7 -15 -15z"/>
<path d="M7574 18465 c-3 -8 5 -34 19 -57 71 -122 229 -196 364 -171 67 13
151 50 167 75 18 29 2 29 -58 2 -75 -34 -181 -43 -258 -20 -68 20 -150 82
-187 142 -28 46 -38 53 -47 29z"/>
<path d="M8225 18460 c-8 -13 4 -32 16 -25 12 8 12 35 0 35 -6 0 -13 -4 -16
-10z"/>
<path d="M8330 18455 c0 -9 5 -15 11 -13 6 2 11 8 11 13 0 5 -5 11 -11 13 -6
2 -11 -4 -11 -13z"/>
<path d="M14490 8040 c0 -5 5 -10 11 -10 5 0 7 5 4 10 -3 6 -8 10 -11 10 -2 0
-4 -4 -4 -10z"/>
<path d="M14475 7950 c3 -5 10 -10 16 -10 5 0 9 5 9 10 0 6 -7 10 -16 10 -8 0
-12 -4 -9 -10z"/>
<path d="M14518 7943 c6 -2 18 -2 25 0 6 3 1 5 -13 5 -14 0 -19 -2 -12 -5z"/>
<path d="M14645 7920 c-4 -6 -10 -8 -15 -5 -4 3 -6 -4 -3 -15 3 -11 10 -17 15
-14 5 3 7 9 4 12 -3 3 -1 11 5 19 6 7 9 13 6 13 -3 0 -9 -5 -12 -10z"/>
<path d="M14341 7847 c11 -11 23 -16 27 -12 4 4 1 10 -6 12 -6 3 -10 9 -7 13
3 5 -3 8 -14 7 -20 -1 -20 -1 0 -20z"/>
<path d="M14380 7840 c0 -14 15 -19 29 -11 9 6 7 10 -8 14 -12 3 -21 1 -21 -3z"/>
<path d="M14590 7839 c0 -5 -4 -7 -10 -4 -6 3 -7 -1 -4 -9 4 -12 0 -16 -17
-17 l-24 -1 25 -7 c31 -10 41 -5 33 14 -3 8 0 15 6 15 6 0 11 5 11 10 0 6 -4
10 -10 10 -5 0 -10 -5 -10 -11z"/>
<path d="M14388 7803 c7 -3 16 -2 19 1 4 3 -2 6 -13 5 -11 0 -14 -3 -6 -6z"/>
<path d="M14553 7762 c-7 -4 -11 -17 -10 -29 1 -20 8 -25 9 -6 0 4 4 16 9 26
11 19 10 20 -8 9z"/>
<path d="M16424 16480 c-139 -20 -312 -112 -447 -239 -219 -207 -412 -586
-490 -966 -47 -224 -52 -286 -52 -590 0 -304 5 -366 52 -590 125 -603 459
-1068 858 -1191 84 -26 293 -26 385 0 246 71 463 257 629 541 142 242 246 566
281 875 19 166 23 175 30 64 5 -82 10 -106 29 -132 38 -54 49 -57 281 -62
l215 -5 3 -302 2 -303 63 -2 c136 -4 369 -3 375 2 4 3 7 205 7 450 l0 445
1353 3 1352 2 0 -85 c0 -95 13 -137 54 -175 27 -25 30 -25 249 -30 l222 -5 3
-302 2 -303 48 -1 c49 -2 117 -1 290 0 l102 1 0 450 0 450 45 0 45 0 0 205 0
205 -45 0 -45 0 0 290 c0 240 -3 297 -16 328 -34 83 -110 131 -207 132 -87 0
-157 -43 -198 -122 -17 -34 -19 -62 -19 -333 l0 -295 -115 0 -115 0 0 138 c0
123 -2 142 -22 182 -30 57 -76 83 -141 77 -56 -5 -92 -29 -118 -77 -16 -29
-19 -58 -19 -177 l0 -143 -1355 0 -1355 0 0 295 c0 271 -2 299 -19 333 -41 79
-111 122 -198 122 -71 0 -129 -25 -167 -71 -54 -64 -56 -75 -56 -389 l0 -290
-115 0 -115 0 0 143 c0 115 -3 148 -18 176 -24 48 -62 73 -119 78 -65 6 -111
-20 -140 -77 -21 -40 -23 -59 -23 -184 0 -77 -3 -137 -6 -134 -3 4 -12 61 -20
128 -54 467 -216 868 -463 1148 -125 142 -301 256 -458 296 -76 20 -218 28
-299 16z"/>
<path d="M24110 16480 c-291 -37 -579 -294 -770 -685 -281 -574 -316 -1365
-89 -2015 66 -188 187 -407 298 -540 25 -30 55 -66 66 -79 34 -41 175 -150
239 -186 33 -18 97 -46 141 -61 72 -25 94 -28 215 -29 114 0 147 4 210 23 234
74 428 238 598 507 96 154 206 435 255 655 26 114 57 323 57 381 l0 29 178 0
c201 0 232 8 289 73 75 86 66 208 -21 285 -51 44 -91 52 -277 52 l-166 0 -7
78 c-27 304 -120 632 -252 881 -77 145 -144 239 -249 349 -209 219 -454 316
-715 282z"/>
<path d="M14225 14871 c-146 -66 -166 -264 -36 -356 l43 -30 251 -3 252 -3 0
206 0 205 -235 0 c-206 0 -240 -3 -275 -19z"/>
<path d="M8392 13355 c1 -33 -2 -113 -6 -177 -8 -107 -7 -118 8 -118 28 0 56
76 56 151 0 70 -20 152 -45 184 -14 19 -15 16 -13 -40z"/>
<path d="M14145 7600 c-4 -6 6 -10 22 -10 22 0 25 2 13 10 -19 12 -27 12 -35
0z"/>
<path d="M14195 7570 c3 -5 8 -10 11 -10 2 0 4 5 4 10 0 6 -5 10 -11 10 -5 0
-7 -4 -4 -10z"/>
<path d="M14201 7534 c0 -11 3 -14 6 -6 3 7 2 16 -1 19 -3 4 -6 -2 -5 -13z"/>
<path d="M14171 7534 c1 -21 16 -47 21 -38 4 5 0 18 -8 29 -8 10 -14 15 -13 9z"/>
<path d="M14056 7465 c-9 -26 -7 -32 5 -12 6 10 9 21 6 23 -2 3 -7 -2 -11 -11z"/>
<path d="M14269 7478 c-5 -19 -8 -50 -4 -46 7 7 15 48 9 48 -2 0 -4 -1 -5 -2z"/>
<path d="M14080 7461 c0 -6 5 -11 10 -11 6 0 9 -5 8 -12 -2 -6 6 -13 17 -15
11 -1 14 0 8 3 -7 3 -13 10 -13 15 0 6 6 7 13 3 7 -4 9 -3 4 2 -5 5 -12 9 -15
9 -4 0 -13 4 -19 8 -8 5 -13 4 -13 -2z"/>
<path d="M14205 7460 c3 -5 10 -10 16 -10 5 0 9 5 9 10 0 6 -7 10 -16 10 -8 0
-12 -4 -9 -10z"/>
<path d="M14002 7427 c1 -20 5 -34 10 -31 4 3 6 17 4 31 -8 40 -16 40 -14 0z"/>
<path d="M14288 7423 c7 -3 16 -2 19 1 4 3 -2 6 -13 5 -11 0 -14 -3 -6 -6z"/>
<path d="M14119 7400 c-5 -33 -9 -44 -18 -53 -6 -6 -11 -16 -11 -23 0 -16 51
-65 61 -58 5 3 9 0 9 -7 0 -7 3 -9 6 -6 8 8 -15 39 -25 33 -10 -6 -26 17 -29
43 -3 16 0 21 9 16 8 -6 10 -4 4 5 -4 7 -2 16 6 21 11 6 11 11 1 21 -6 6 -12
10 -13 8z"/>
<path d="M14026 7377 c3 -10 9 -15 12 -12 3 3 0 11 -7 18 -10 9 -11 8 -5 -6z"/>
<path d="M14160 7380 c-12 -7 -10 -9 8 -7 12 0 22 5 22 9 0 11 -12 10 -30 -2z"/>
<path d="M14200 7379 c0 -5 5 -7 10 -4 6 3 10 8 10 11 0 2 -4 4 -10 4 -5 0
-10 -5 -10 -11z"/>
<path d="M14142 7329 c1 -23 3 -25 17 -13 9 8 24 19 34 26 15 12 13 13 -17 13
-31 0 -34 -3 -34 -26z"/>
<path d="M14264 7346 c1 -8 5 -18 8 -22 4 -3 5 1 4 10 -1 8 -5 18 -8 22 -4 3
-5 -1 -4 -10z"/>
<path d="M14210 7330 c0 -5 5 -10 10 -10 6 0 10 5 10 10 0 6 -4 10 -10 10 -5
0 -10 -4 -10 -10z"/>
<path d="M14200 7275 c0 -8 -5 -15 -12 -15 -17 0 -4 -10 20 -15 27 -5 35 18
11 33 -16 10 -19 9 -19 -3z"/>
<path d="M14218 7208 c5 -5 16 -8 23 -6 8 3 3 7 -10 11 -17 4 -21 3 -13 -5z"/>
<path d="M9946 7005 c-51 -18 -90 -57 -118 -119 l-23 -51 -3 -922 c-1 -508 -4
-923 -5 -923 -1 0 -52 11 -112 25 -79 18 -154 27 -267 32 l-158 6 0 679 0 678
-152 0 c-167 0 -216 -9 -267 -47 -64 -49 -71 -81 -71 -328 0 -121 -3 -412 -7
-647 l-6 -427 -99 -50 c-93 -47 -99 -49 -98 -28 1 12 2 84 1 160 -1 135 -1
137 -23 137 -34 0 -85 -35 -103 -69 -12 -24 -15 -66 -15 -204 0 -173 0 -174
-25 -197 -40 -38 -94 -125 -115 -185 -55 -159 -22 -339 99 -535 29 -47 29 -49
11 -65 -60 -54 -172 -259 -213 -390 -43 -138 -51 -193 -50 -350 0 -162 16
-254 68 -391 141 -375 472 -652 885 -741 65 -14 125 -18 260 -17 162 1 184 3
292 32 219 57 392 156 554 317 235 233 344 488 344 805 0 237 -59 436 -186
626 -49 75 -54 87 -54 138 0 43 7 71 30 116 16 32 41 98 55 146 43 148 30 264
-45 401 l-40 72 0 1166 0 1165 -152 0 c-104 -1 -166 -5 -192 -15z m-311 -2264
c50 -10 107 -26 128 -34 l37 -16 0 -210 c0 -116 -3 -211 -7 -211 -4 0 -32 9
-62 19 -128 45 -240 64 -381 65 l-85 1 -3 209 -2 209 142 -7 c79 -3 184 -15
233 -25z m-875 -311 c0 -110 -4 -200 -8 -200 -21 0 -83 109 -102 178 -9 36 -8
52 5 91 15 47 77 131 96 131 5 0 9 -85 9 -200z"/>
<path d="M19830 6998 c0 -13 -1 -853 -1 -1867 l0 -1843 -22 8 c-36 13 -650 17
-696 4 -22 -6 -54 -22 -71 -36 -62 -52 -60 -37 -60 -565 0 -467 1 -482 21
-518 11 -20 36 -48 56 -61 l37 -25 346 0 346 0 41 27 c63 41 77 82 81 231 l4
127 743 0 742 0 7 -77 c3 -42 6 -101 6 -131 0 -67 29 -124 80 -155 34 -22 42
-22 380 -22 338 0 346 0 380 22 20 12 46 40 58 62 l23 40 -3 490 c-3 479 -3
490 -24 518 -41 56 -80 73 -163 73 -42 0 -113 3 -159 7 l-83 6 29 31 c16 17
53 72 82 123 30 51 56 91 59 89 3 -2 114 -65 246 -141 261 -150 1038 -597
1043 -601 2 -1 -25 -53 -59 -114 -53 -95 -63 -120 -62 -159 1 -50 19 -95 49
-122 11 -10 142 -88 292 -175 306 -176 332 -185 411 -145 50 26 54 32 280 424
244 423 254 443 248 495 -9 85 -31 104 -322 271 -147 85 -285 160 -307 168
-45 15 -107 5 -147 -25 -14 -10 -54 -66 -89 -123 -34 -57 -68 -103 -75 -101
-13 4 -188 104 -622 357 -143 83 -350 202 -460 265 -110 63 -202 115 -204 117
-3 2 5 20 17 41 105 176 121 242 78 316 -21 36 -55 59 -288 193 -285 165 -322
183 -368 183 l-30 0 0 195 c0 209 -3 227 -52 272 -13 13 -38 26 -56 29 l-32 7
0 -174 c-1 -96 -1 -236 0 -311 1 -107 -3 -144 -15 -168 -8 -16 -20 -30 -26
-30 -6 0 -8 -4 -5 -8 6 -10 -28 -64 -36 -56 -3 3 -5 -3 -4 -13 0 -10 -5 -17
-12 -15 -8 1 -11 -2 -7 -8 3 -6 -16 -50 -44 -98 l-51 -87 -1 600 c0 330 -3
794 -7 1032 l-7 431 -30 43 c-52 74 -84 83 -282 87 l-173 4 0 -1596 0 -1596
165 0 c176 0 215 8 263 53 41 38 56 78 62 168 l5 86 184 -106 185 -106 -95 -6
c-103 -6 -142 -21 -182 -68 -31 -37 -34 -53 -42 -203 l-7 -118 -539 0 -539 0
-2 1958 -3 1957 -24 53 c-28 61 -76 107 -128 121 -21 6 -104 11 -185 11 -147
0 -148 0 -148 -22z"/>
<path d="M16356 6170 c-146 -203 -266 -373 -266 -377 0 -4 15 -18 33 -29 l34
-22 259 360 c142 199 262 366 266 373 5 8 -5 22 -26 39 l-34 26 -266 -370z"/>
<path d="M5138 5852 c4 -11 1 -13 -9 -7 -8 4 -11 5 -7 0 4 -4 3 -15 -4 -22 -9
-11 -9 -17 3 -24 10 -6 10 -9 2 -9 -7 0 -13 -5 -13 -11 0 -8 4 -8 13 -1 8 7
17 7 29 -2 10 -7 16 -15 13 -17 -2 -3 4 -5 14 -6 17 -1 17 0 -3 21 -11 12 -29
25 -39 29 -15 6 -16 9 -5 21 7 8 16 12 20 10 4 -3 6 4 5 14 0 10 -6 19 -13 19
-7 0 -10 -7 -6 -15z"/>
<path d="M5233 5833 c-3 -10 -8 -22 -10 -28 -3 -5 3 -1 11 9 16 20 21 36 11
36 -3 0 -8 -8 -12 -17z"/>
<path d="M5324 5795 c-4 -8 -11 -12 -17 -8 -6 4 -7 1 -2 -7 6 -10 11 -10 20 3
7 9 16 13 20 9 5 -4 5 -1 1 6 -9 16 -15 15 -22 -3z"/>
<path d="M5100 5750 c-16 -10 -10 -20 13 -24 8 -1 22 -8 31 -15 14 -12 16 -12
10 2 -3 9 -16 19 -27 23 -22 7 -22 7 -2 15 13 5 15 8 5 8 -8 0 -22 -3 -30 -9z"/>
<path d="M5356 5748 c3 -5 10 -6 15 -3 13 9 11 12 -6 12 -8 0 -12 -4 -9 -9z"/>
<path d="M5290 5730 c0 -5 5 -10 10 -10 6 0 10 5 10 10 0 6 -4 10 -10 10 -5 0
-10 -4 -10 -10z"/>
<path d="M5173 5711 c-1 -11 5 -25 13 -32 10 -8 14 -8 14 0 0 6 -4 11 -10 11
-5 0 -10 5 -10 10 0 6 5 9 11 8 6 -2 14 4 16 12 4 13 3 13 -6 0 -7 -10 -11
-11 -11 -2 0 20 -16 14 -17 -7z"/>
<path d="M5370 5726 c0 -2 7 -9 15 -16 13 -11 14 -10 9 4 -5 14 -24 23 -24 12z"/>
<path d="M5080 5702 c0 -5 7 -17 16 -28 8 -10 12 -13 8 -5 -5 10 -1 11 15 6
12 -4 21 -2 21 4 0 6 -5 11 -11 11 -5 0 -8 4 -5 8 2 4 -6 9 -20 10 -13 1 -24
-2 -24 -6z"/>
<path d="M5285 5697 c10 -8 15 -19 11 -25 -5 -8 -2 -10 8 -6 9 3 16 9 16 11 0
8 -33 32 -44 33 -6 0 -2 -6 9 -13z"/>
<path d="M5224 5670 c2 -16 10 -26 22 -27 18 -3 18 -2 -1 5 -19 9 -19 9 0 20
11 6 16 14 12 18 -5 5 -12 2 -16 -5 -7 -11 -10 -11 -14 0 -3 8 -4 3 -3 -11z"/>
<path d="M5335 5680 c-2 -3 5 -7 16 -7 10 -1 19 2 19 6 0 9 -29 10 -35 1z"/>
<path d="M5673 5666 c1 -11 9 -21 17 -23 10 -3 11 -2 4 4 -6 4 -14 15 -17 23
-5 11 -6 9 -4 -4z"/>
<path d="M5696 5671 c-3 -5 1 -11 9 -14 9 -4 12 -1 8 9 -6 16 -10 17 -17 5z"/>
<path d="M5110 5640 c0 -5 5 -10 11 -10 5 0 7 5 4 10 -3 6 -8 10 -11 10 -2 0
-4 -4 -4 -10z"/>
<path d="M5134 5605 c-4 -11 -14 -25 -23 -32 -15 -11 -14 -12 1 -13 11 0 20
10 24 25 3 14 9 23 13 21 3 -2 12 2 18 9 10 11 9 13 -7 12 -11 -1 -23 -10 -26
-22z"/>
<path d="M5255 5609 c-4 -6 -5 -12 -2 -15 2 -3 7 2 10 11 7 17 1 20 -8 4z"/>
<path d="M5060 5599 c0 -5 -4 -7 -10 -4 -5 3 -10 2 -10 -2 0 -5 10 -14 23 -22
15 -9 18 -9 10 -1 -6 7 -9 19 -6 26 3 8 2 14 -1 14 -3 0 -6 -5 -6 -11z"/>
<path d="M5170 5606 c0 -2 7 -9 15 -16 13 -11 14 -10 9 4 -5 14 -24 23 -24 12z"/>
<path d="M5215 5601 c-3 -5 -1 -12 5 -16 5 -3 10 1 10 9 0 18 -6 21 -15 7z"/>
<path d="M5780 5601 c0 -6 4 -13 10 -16 6 -3 7 1 4 9 -7 18 -14 21 -14 7z"/>
<path d="M5856 5562 c-2 -4 4 -8 14 -8 10 0 16 4 14 8 -3 4 -9 8 -14 8 -5 0
-11 -4 -14 -8z"/>
<path d="M5076 5538 c7 -11 32 -10 39 2 3 6 -4 9 -19 8 -13 -1 -22 -6 -20 -10z"/>
<path d="M5165 5540 c3 -5 8 -10 11 -10 2 0 4 5 4 10 0 6 -5 10 -11 10 -5 0
-7 -4 -4 -10z"/>
<path d="M5194 5529 c-3 -5 6 -8 20 -7 26 2 26 10 1 14 -8 1 -17 -2 -21 -7z"/>
<path d="M5663 5525 c0 -8 4 -15 9 -15 4 0 8 4 8 9 0 6 -4 12 -8 15 -5 3 -9
-1 -9 -9z"/>
<path d="M5693 5515 c0 -8 3 -13 5 -10 3 3 11 0 19 -6 10 -9 13 -7 13 6 0 10
-3 15 -7 12 -3 -4 -11 -2 -18 3 -8 7 -12 5 -12 -5z"/>
<path d="M5780 5516 c0 -2 7 -7 16 -10 8 -3 12 -2 9 4 -6 10 -25 14 -25 6z"/>
<path d="M5873 5503 c-10 -10 -13 -14 -6 -10 6 5 17 6 23 2 5 -3 10 1 10 9 0
20 -3 20 -27 -1z"/>
<path d="M5810 5480 c0 -5 5 -10 10 -10 6 0 10 5 10 10 0 6 -4 10 -10 10 -5 0
-10 -4 -10 -10z"/>
<path d="M5641 5471 c-8 -5 -20 -7 -28 -4 -9 3 -11 0 -8 -10 5 -12 11 -12 31
-3 13 6 24 14 24 19 0 9 -2 9 -19 -2z"/>
<path d="M5670 5456 c0 -2 7 -7 16 -10 8 -3 12 -2 9 4 -6 10 -25 14 -25 6z"/>
<path d="M5802 5446 c10 -7 17 -15 15 -17 -1 -2 2 -1 8 4 6 5 4 11 -5 17 -23
15 -37 11 -18 -4z"/>
<path d="M5850 5450 c0 -13 18 -22 24 -11 3 5 -1 11 -9 15 -8 3 -15 1 -15 -4z"/>
<path d="M5748 5443 c7 -3 16 -2 19 1 4 3 -2 6 -13 5 -11 0 -14 -3 -6 -6z"/>
<path d="M5640 5430 c-7 -5 -15 -17 -16 -27 -3 -16 10 -23 87 -42 49 -12 97
-24 107 -27 15 -5 15 -4 -1 6 -9 6 -15 14 -13 18 2 4 -10 8 -27 8 -63 2 -144
24 -144 39 0 19 6 19 29 -1 16 -16 18 -16 24 0 3 9 10 16 16 16 5 0 6 -4 3
-10 -3 -5 -1 -10 4 -10 6 0 11 5 11 10 0 6 5 10 11 10 5 0 7 -4 4 -10 -3 -5
-1 -10 5 -10 7 0 10 6 8 13 -3 6 -20 12 -40 13 -19 0 -39 3 -44 7 -6 3 -16 2
-24 -3z m40 -22 c0 -6 -6 -5 -15 2 -8 7 -15 14 -15 16 0 2 7 1 15 -2 8 -4 15
-11 15 -16z"/>
<path d="M5763 5413 c0 -7 7 -13 14 -13 8 0 12 4 9 9 -4 5 0 11 6 14 7 3 4 5
-8 4 -11 -1 -21 -7 -21 -14z"/>
<path d="M5820 5402 c-10 -11 -10 -17 3 -30 13 -12 19 -13 31 -3 8 7 14 20 13
30 -1 20 -29 22 -47 3z m20 -12 c-12 -8 -12 -10 -1 -10 8 0 12 -3 8 -6 -9 -9
-28 6 -22 17 4 5 12 9 18 9 7 0 6 -4 -3 -10z"/>
<path d="M21390 4440 c-9 -6 -10 -10 -3 -10 6 0 15 5 18 10 8 12 4 12 -15 0z"/>
<path d="M4407 3914 c-76 -230 -134 -421 -130 -425 4 -4 161 -59 348 -122 187
-64 574 -195 860 -292 928 -315 1076 -365 1089 -365 8 0 167 -51 354 -114 187
-63 343 -112 346 -108 22 21 -21 39 -331 143 -186 61 -340 114 -343 116 -2 2
17 68 43 145 25 78 46 142 44 143 -1 1 -50 27 -109 58 l-107 56 -48 -65 c-43
-58 -73 -81 -73 -53 0 6 21 37 46 70 25 33 44 63 41 65 -10 10 -200 124 -206
124 -4 0 -29 -27 -57 -60 -46 -57 -74 -75 -74 -48 0 6 23 38 51 70 28 33 50
61 48 63 -16 15 -182 135 -187 135 -4 -1 -36 -37 -71 -80 -35 -44 -67 -80 -72
-80 -23 0 -3 39 55 109 l64 77 -69 62 -68 63 -115 -86 c-63 -47 -120 -85 -126
-85 -31 0 3 36 105 110 64 46 114 86 113 90 -12 26 -85 119 -94 120 -6 0 -82
-29 -169 -65 -163 -67 -185 -74 -185 -52 0 6 77 43 171 81 155 63 170 71 164
90 -3 12 -11 43 -19 70 -7 28 -17 51 -23 53 -6 2 -91 -14 -189 -36 -120 -27
-182 -37 -189 -30 -16 16 4 23 195 64 l180 38 -20 31 c-32 52 -71 66 -180 65
-108 -2 -101 -4 -430 108 -129 44 -288 97 -354 117 -65 21 -124 40 -130 42 -8
3 -61 -146 -149 -412z m507 154 c57 -28 84 -55 113 -112 66 -129 1 -301 -133
-352 -68 -26 -169 -16 -230 22 -89 55 -137 167 -114 270 36 163 214 247 364
172z m582 -783 c30 -45 -14 -95 -72 -81 -42 11 -46 82 -6 102 30 15 59 7 78
-21z m232 -73 c40 -51 -29 -120 -80 -79 -30 23 -31 55 -3 82 27 28 59 27 83
-3z"/>
<path d="M4219 3343 c-17 -48 -18 -53 -16 -53 2 0 198 -65 437 -145 238 -80
434 -144 435 -143 10 14 24 73 18 79 -8 8 -839 289 -855 289 -4 0 -13 -12 -19
-27z"/>
</g>
</svg>
